<svg width="121" height="41" viewBox="0 0 121 41" fill="none" xmlns="http://www.w3.org/2000/svg">
<path opacity="0.289597" fill-rule="evenodd" clip-rule="evenodd" d="M15.1884 2.91554L34.7449 8.85901C35.4909 9.08572 35.9999 9.76648 35.9999 10.5374V27.0571C35.9999 28.0269 35.2039 28.8131 34.222 28.8131C34.0448 28.8131 33.8686 28.787 33.6992 28.7355L14.1427 22.792C13.3967 22.5653 12.8877 21.8846 12.8877 21.1137V4.59391C12.8877 3.62409 13.6837 2.83789 14.6656 2.83789C14.8428 2.83789 15.019 2.86406 15.1884 2.91554Z" fill="#0088B2"/>
<path opacity="0.6" fill-rule="evenodd" clip-rule="evenodd" d="M10.748 5.72609L30.3044 11.6696C31.0504 11.8963 31.5595 12.577 31.5595 13.3479V29.8677C31.5595 30.8375 30.7635 31.6237 29.7816 31.6237C29.6044 31.6237 29.4281 31.5975 29.2588 31.546L9.70228 25.6026C8.95631 25.3759 8.44727 24.6951 8.44727 23.9242V7.40446C8.44727 6.43464 9.24324 5.64844 10.2251 5.64844C10.4024 5.64844 10.5786 5.67461 10.748 5.72609Z" fill="#0088B2"/>
<path fill-rule="evenodd" clip-rule="evenodd" d="M6.30071 9.23781L25.8572 15.1813C26.6032 15.408 27.1122 16.0887 27.1122 16.8596V33.3856C27.1122 34.3554 26.3162 35.1416 25.3343 35.1416C25.1586 35.1416 24.9838 35.1159 24.8157 35.0653L19.5563 33.481V37.9602C19.5563 38.4451 19.1583 38.8382 18.6674 38.8382C18.382 38.8382 18.114 38.7029 17.9469 38.4745L13.0599 31.7961C12.9491 31.6446 12.7922 31.5321 12.6121 31.4747L5.23244 29.1252C4.4979 28.8914 4 28.2162 4 27.4539V10.9162C4 9.94636 4.79598 9.16016 5.77786 9.16016C5.95509 9.16016 6.13132 9.18633 6.30071 9.23781Z" fill="#0088B2"/>
<path d="M9.10453 18.7458C8.41971 17.3996 9.68 15.8841 11.1324 16.3073L16.5731 17.8928C17.1583 18.0634 17.6145 18.5214 17.7821 19.1065C18.1715 20.4663 16.8887 21.7162 15.5364 21.2946L10.1264 19.6081C9.68313 19.4699 9.31474 19.159 9.10453 18.7458Z" fill="white"/>
<path d="M20.0696 27.7129C21.0836 26.9489 20.8207 25.3655 19.6149 24.9735L14.2174 23.2193C13.7289 23.0606 13.1928 23.1504 12.7821 23.4599C11.7681 24.2239 12.0309 25.8073 13.2367 26.1993L18.6342 27.9535C19.1227 28.1122 19.6588 28.0224 20.0696 27.7129Z" fill="white"/>
<path d="M48.8086 4.41016H51.1934V6.0332H48.8086V4.41016ZM48.8086 6.77734H51.1934V13H48.8086V6.77734ZM52.7168 6.77734H54.9375V7.79102C55.2695 7.37695 55.6055 7.08203 55.9453 6.90625C56.2852 6.72656 56.6992 6.63672 57.1875 6.63672C57.8477 6.63672 58.3633 6.83398 58.7344 7.22852C59.1094 7.61914 59.2969 8.22461 59.2969 9.04492V13H56.9004V9.57812C56.9004 9.1875 56.8281 8.91211 56.6836 8.75195C56.5391 8.58789 56.3359 8.50586 56.0742 8.50586C55.7852 8.50586 55.5508 8.61523 55.3711 8.83398C55.1914 9.05273 55.1016 9.44531 55.1016 10.0117V13H52.7168V6.77734ZM63.375 6.77734H64.5117V8.52344H63.375V13H60.9844V8.52344H60.0938V6.77734H60.9844V6.49609C60.9844 6.24219 61.0117 5.96289 61.0664 5.6582C61.1211 5.35352 61.2227 5.10547 61.3711 4.91406C61.5234 4.71875 61.7344 4.5625 62.0039 4.44531C62.2773 4.32422 62.6758 4.26367 63.1992 4.26367C63.6172 4.26367 64.2246 4.3125 65.0215 4.41016L64.7578 5.85156C64.4727 5.80469 64.2422 5.78125 64.0664 5.78125C63.8516 5.78125 63.6973 5.81836 63.6035 5.89258C63.5098 5.96289 63.4434 6.07617 63.4043 6.23242C63.3848 6.31836 63.375 6.5 63.375 6.77734ZM65.1035 9.90625C65.1035 8.95703 65.4238 8.17578 66.0645 7.5625C66.7051 6.94531 67.5703 6.63672 68.6602 6.63672C69.9062 6.63672 70.8477 6.99805 71.4844 7.7207C71.9961 8.30273 72.252 9.01953 72.252 9.87109C72.252 10.8281 71.9336 11.6133 71.2969 12.2266C70.6641 12.8359 69.7871 13.1406 68.666 13.1406C67.666 13.1406 66.8574 12.8867 66.2402 12.3789C65.4824 11.75 65.1035 10.9258 65.1035 9.90625ZM67.4941 9.90039C67.4941 10.4551 67.6055 10.8652 67.8281 11.1309C68.0547 11.3965 68.3379 11.5293 68.6777 11.5293C69.0215 11.5293 69.3027 11.3984 69.5215 11.1367C69.7441 10.875 69.8555 10.4551 69.8555 9.87695C69.8555 9.33789 69.7441 8.9375 69.5215 8.67578C69.2988 8.41016 69.0234 8.27734 68.6953 8.27734C68.3477 8.27734 68.0605 8.41211 67.834 8.68164C67.6074 8.94727 67.4941 9.35352 67.4941 9.90039ZM73.418 6.77734H75.6445V7.68555C75.9648 7.30664 76.2871 7.03711 76.6113 6.87695C76.9395 6.7168 77.334 6.63672 77.7949 6.63672C78.291 6.63672 78.6836 6.72461 78.9727 6.90039C79.2617 7.07617 79.498 7.33789 79.6816 7.68555C80.0566 7.2793 80.3984 7.00391 80.707 6.85938C81.0156 6.71094 81.3965 6.63672 81.8496 6.63672C82.5176 6.63672 83.0391 6.83594 83.4141 7.23438C83.7891 7.62891 83.9766 8.24805 83.9766 9.0918V13H81.5859V9.45508C81.5859 9.17383 81.5312 8.96484 81.4219 8.82812C81.2617 8.61328 81.0625 8.50586 80.8242 8.50586C80.543 8.50586 80.3164 8.60742 80.1445 8.81055C79.9727 9.01367 79.8867 9.33984 79.8867 9.78906V13H77.4961V9.57227C77.4961 9.29883 77.4805 9.11328 77.4492 9.01562C77.3984 8.85938 77.3105 8.73438 77.1855 8.64062C77.0605 8.54297 76.9141 8.49414 76.7461 8.49414C76.4727 8.49414 76.248 8.59766 76.0723 8.80469C75.8965 9.01172 75.8086 9.35156 75.8086 9.82422V13H73.418V6.77734ZM87.5742 8.79297L85.2949 8.55273C85.3809 8.1543 85.5039 7.8418 85.6641 7.61523C85.8281 7.38477 86.0625 7.18555 86.3672 7.01758C86.5859 6.89648 86.8867 6.80273 87.2695 6.73633C87.6523 6.66992 88.0664 6.63672 88.5117 6.63672C89.2266 6.63672 89.8008 6.67773 90.2344 6.75977C90.668 6.83789 91.0293 7.00391 91.3184 7.25781C91.5215 7.43359 91.6816 7.68359 91.7988 8.00781C91.916 8.32812 91.9746 8.63477 91.9746 8.92773V11.6758C91.9746 11.9688 91.9922 12.1992 92.0273 12.3672C92.0664 12.5312 92.1484 12.7422 92.2734 13H90.0352C89.9453 12.8398 89.8867 12.7188 89.8594 12.6367C89.832 12.5508 89.8047 12.418 89.7773 12.2383C89.4648 12.5391 89.1543 12.7539 88.8457 12.8828C88.4238 13.0547 87.9336 13.1406 87.375 13.1406C86.6328 13.1406 86.0684 12.9688 85.6816 12.625C85.2988 12.2812 85.1074 11.8574 85.1074 11.3535C85.1074 10.8809 85.2461 10.4922 85.5234 10.1875C85.8008 9.88281 86.3125 9.65625 87.0586 9.50781C87.9531 9.32812 88.5332 9.20312 88.7988 9.13281C89.0645 9.05859 89.3457 8.96289 89.6426 8.8457C89.6426 8.55273 89.582 8.34766 89.4609 8.23047C89.3398 8.11328 89.127 8.05469 88.8223 8.05469C88.4316 8.05469 88.1387 8.11719 87.9434 8.24219C87.791 8.33984 87.668 8.52344 87.5742 8.79297ZM89.6426 10.0469C89.3145 10.1641 88.9727 10.2676 88.6172 10.3574C88.1328 10.4863 87.8262 10.6133 87.6973 10.7383C87.5645 10.8672 87.498 11.0137 87.498 11.1777C87.498 11.3652 87.5625 11.5195 87.6914 11.6406C87.8242 11.7578 88.0176 11.8164 88.2715 11.8164C88.5371 11.8164 88.7832 11.752 89.0098 11.623C89.2402 11.4941 89.4023 11.3379 89.4961 11.1543C89.5938 10.9668 89.6426 10.7246 89.6426 10.4277V10.0469ZM93.4043 6.77734H95.625V7.79102C95.957 7.37695 96.293 7.08203 96.6328 6.90625C96.9727 6.72656 97.3867 6.63672 97.875 6.63672C98.5352 6.63672 99.0508 6.83398 99.4219 7.22852C99.7969 7.61914 99.9844 8.22461 99.9844 9.04492V13H97.5879V9.57812C97.5879 9.1875 97.5156 8.91211 97.3711 8.75195C97.2266 8.58789 97.0234 8.50586 96.7617 8.50586C96.4727 8.50586 96.2383 8.61523 96.0586 8.83398C95.8789 9.05273 95.7891 9.44531 95.7891 10.0117V13H93.4043V6.77734ZM101.496 4.41016H103.881V6.0332H101.496V4.41016ZM101.496 6.77734H103.881V13H101.496V6.77734ZM107.578 8.79297L105.299 8.55273C105.385 8.1543 105.508 7.8418 105.668 7.61523C105.832 7.38477 106.066 7.18555 106.371 7.01758C106.59 6.89648 106.891 6.80273 107.273 6.73633C107.656 6.66992 108.07 6.63672 108.516 6.63672C109.23 6.63672 109.805 6.67773 110.238 6.75977C110.672 6.83789 111.033 7.00391 111.322 7.25781C111.525 7.43359 111.686 7.68359 111.803 8.00781C111.92 8.32812 111.979 8.63477 111.979 8.92773V11.6758C111.979 11.9688 111.996 12.1992 112.031 12.3672C112.07 12.5312 112.152 12.7422 112.277 13H110.039C109.949 12.8398 109.891 12.7188 109.863 12.6367C109.836 12.5508 109.809 12.418 109.781 12.2383C109.469 12.5391 109.158 12.7539 108.85 12.8828C108.428 13.0547 107.938 13.1406 107.379 13.1406C106.637 13.1406 106.072 12.9688 105.686 12.625C105.303 12.2812 105.111 11.8574 105.111 11.3535C105.111 10.8809 105.25 10.4922 105.527 10.1875C105.805 9.88281 106.316 9.65625 107.062 9.50781C107.957 9.32812 108.537 9.20312 108.803 9.13281C109.068 9.05859 109.35 8.96289 109.646 8.8457C109.646 8.55273 109.586 8.34766 109.465 8.23047C109.344 8.11328 109.131 8.05469 108.826 8.05469C108.436 8.05469 108.143 8.11719 107.947 8.24219C107.795 8.33984 107.672 8.52344 107.578 8.79297ZM109.646 10.0469C109.318 10.1641 108.977 10.2676 108.621 10.3574C108.137 10.4863 107.83 10.6133 107.701 10.7383C107.568 10.8672 107.502 11.0137 107.502 11.1777C107.502 11.3652 107.566 11.5195 107.695 11.6406C107.828 11.7578 108.021 11.8164 108.275 11.8164C108.541 11.8164 108.787 11.752 109.014 11.623C109.244 11.4941 109.406 11.3379 109.5 11.1543C109.598 10.9668 109.646 10.7246 109.646 10.4277V10.0469ZM113.408 4.41016H115.846V8.83984L117.627 6.77734H120.562L118.33 8.95703L120.691 13H118.002L116.742 10.5039L115.846 11.3828V13H113.408V4.41016Z" fill="#0098FF"/>
<path d="M51.584 20.875V35.875H49.2207V20.875H51.584ZM58.1465 25.3086L53.5469 30.4062L51.0273 32.9844L50.4121 30.9922L52.3164 28.6387L55.3047 25.3086H58.1465ZM55.8125 35.875L52.3848 30.9141L53.8691 29.2637L58.5371 35.875H55.8125ZM68.2734 31.2461H70.7148C70.6367 32.1771 70.3763 33.0072 69.9336 33.7363C69.4909 34.459 68.8691 35.0286 68.0684 35.4453C67.2676 35.862 66.2943 36.0703 65.1484 36.0703C64.2695 36.0703 63.4785 35.9141 62.7754 35.6016C62.0723 35.2826 61.4701 34.8333 60.9688 34.2539C60.4674 33.668 60.0833 32.9616 59.8164 32.1348C59.556 31.3079 59.4258 30.3835 59.4258 29.3613V28.1797C59.4258 27.1576 59.5592 26.2331 59.8262 25.4062C60.0996 24.5794 60.4902 23.873 60.998 23.2871C61.5059 22.6947 62.1146 22.2422 62.8242 21.9297C63.5404 21.6172 64.3444 21.4609 65.2363 21.4609C66.3691 21.4609 67.3262 21.6693 68.1074 22.0859C68.8887 22.5026 69.4941 23.0788 69.9238 23.8145C70.36 24.5501 70.627 25.3932 70.7246 26.3438H68.2832C68.2181 25.7318 68.0749 25.2077 67.8535 24.7715C67.6387 24.3353 67.3197 24.0033 66.8965 23.7754C66.4733 23.541 65.9199 23.4238 65.2363 23.4238C64.6764 23.4238 64.1882 23.528 63.7715 23.7363C63.3548 23.9447 63.0065 24.2507 62.7266 24.6543C62.4466 25.0579 62.235 25.556 62.0918 26.1484C61.9551 26.7344 61.8867 27.4049 61.8867 28.1602V29.3613C61.8867 30.0775 61.9486 30.7285 62.0723 31.3145C62.2025 31.8939 62.3978 32.3919 62.6582 32.8086C62.9251 33.2253 63.2637 33.5475 63.6738 33.7754C64.084 34.0033 64.5755 34.1172 65.1484 34.1172C65.8451 34.1172 66.4082 34.0065 66.8379 33.7852C67.2741 33.5638 67.6029 33.2415 67.8242 32.8184C68.0521 32.3887 68.2018 31.8646 68.2734 31.2461ZM75.0312 20.875V35.875H72.6875V20.875H75.0312ZM74.6211 30.2012L73.8594 30.1914C73.8659 29.4622 73.9668 28.7884 74.1621 28.1699C74.3639 27.5514 74.6439 27.0143 75.002 26.5586C75.3665 26.0964 75.8027 25.7415 76.3105 25.4941C76.8184 25.2402 77.3815 25.1133 78 25.1133C78.5208 25.1133 78.9896 25.1849 79.4062 25.3281C79.8294 25.4714 80.194 25.7025 80.5 26.0215C80.806 26.334 81.0371 26.7441 81.1934 27.252C81.3561 27.7533 81.4375 28.3652 81.4375 29.0879V35.875H79.0742V29.0684C79.0742 28.5605 78.9993 28.1569 78.8496 27.8574C78.7064 27.5579 78.4948 27.3431 78.2148 27.2129C77.9349 27.0762 77.5931 27.0078 77.1895 27.0078C76.7663 27.0078 76.3919 27.0924 76.0664 27.2617C75.7474 27.431 75.4805 27.6621 75.2656 27.9551C75.0508 28.248 74.888 28.5866 74.7773 28.9707C74.6732 29.3548 74.6211 29.765 74.6211 30.2012ZM89.7773 33.7559V28.7168C89.7773 28.3392 89.709 28.0137 89.5723 27.7402C89.4355 27.4668 89.2272 27.2552 88.9473 27.1055C88.6738 26.9557 88.3288 26.8809 87.9121 26.8809C87.528 26.8809 87.196 26.946 86.916 27.0762C86.6361 27.2064 86.418 27.3822 86.2617 27.6035C86.1055 27.8249 86.0273 28.0755 86.0273 28.3555H83.6836C83.6836 27.9388 83.7845 27.5352 83.9863 27.1445C84.1882 26.7539 84.4811 26.4056 84.8652 26.0996C85.2493 25.7936 85.7083 25.5527 86.2422 25.377C86.776 25.2012 87.375 25.1133 88.0391 25.1133C88.8333 25.1133 89.5365 25.2467 90.1484 25.5137C90.7669 25.7806 91.252 26.1842 91.6035 26.7246C91.9616 27.2585 92.1406 27.929 92.1406 28.7363V33.4336C92.1406 33.9154 92.1732 34.3483 92.2383 34.7324C92.3099 35.11 92.4108 35.4388 92.541 35.7188V35.875H90.1289C90.0182 35.6211 89.9303 35.2988 89.8652 34.9082C89.8066 34.5111 89.7773 34.127 89.7773 33.7559ZM90.1191 29.4492L90.1387 30.9043H88.4492C88.013 30.9043 87.6289 30.9466 87.2969 31.0312C86.9648 31.1094 86.6882 31.2266 86.4668 31.3828C86.2454 31.5391 86.0794 31.7279 85.9688 31.9492C85.8581 32.1706 85.8027 32.4212 85.8027 32.7012C85.8027 32.9811 85.8678 33.2383 85.998 33.4727C86.1283 33.7005 86.3171 33.8796 86.5645 34.0098C86.8184 34.14 87.1243 34.2051 87.4824 34.2051C87.9642 34.2051 88.3841 34.1074 88.7422 33.9121C89.1068 33.7103 89.3932 33.4661 89.6016 33.1797C89.8099 32.8867 89.9206 32.61 89.9336 32.3496L90.6953 33.3945C90.6172 33.6615 90.4837 33.9479 90.2949 34.2539C90.1061 34.5599 89.8587 34.8529 89.5527 35.1328C89.2533 35.4062 88.8919 35.6309 88.4688 35.8066C88.0521 35.9824 87.5703 36.0703 87.0234 36.0703C86.3333 36.0703 85.7181 35.9336 85.1777 35.6602C84.6374 35.3802 84.2142 35.0059 83.9082 34.5371C83.6022 34.0618 83.4492 33.5247 83.4492 32.9258C83.4492 32.3659 83.5534 31.8711 83.7617 31.4414C83.9766 31.0052 84.2891 30.6406 84.6992 30.3477C85.1159 30.0547 85.6237 29.8333 86.2227 29.6836C86.8216 29.5273 87.5052 29.4492 88.2734 29.4492H90.1191ZM99.4453 25.3086V27.0273H93.4883V25.3086H99.4453ZM95.207 22.7207H97.5605V32.9551C97.5605 33.2806 97.6061 33.5312 97.6973 33.707C97.7949 33.8763 97.9284 33.9902 98.0977 34.0488C98.2669 34.1074 98.4655 34.1367 98.6934 34.1367C98.8561 34.1367 99.0124 34.127 99.1621 34.1074C99.3118 34.0879 99.4323 34.0684 99.5234 34.0488L99.5332 35.8457C99.3379 35.9043 99.11 35.9564 98.8496 36.002C98.5957 36.0475 98.3027 36.0703 97.9707 36.0703C97.4303 36.0703 96.9518 35.9759 96.5352 35.7871C96.1185 35.5918 95.793 35.276 95.5586 34.8398C95.3242 34.4036 95.207 33.8242 95.207 33.1016V22.7207Z" fill="#333333"/>
</svg>
